<svg width="334" height="52" viewBox="0 0 334 52" fill="none" xmlns="http://www.w3.org/2000/svg">
<path d="M39.176 37H27.272V35.608C27.912 35.352 28.552 35.144 29.192 34.984C29.832 34.792 30.488 34.616 31.16 34.456V12.856L31.352 7.24H30.968L29.384 12.376L19.544 37H18.296L8.936 12.376L7.208 6.76H6.776L6.824 12.856V34.456C7.432 34.584 8.04 34.744 8.648 34.936C9.256 35.128 9.864 35.352 10.472 35.608V37H0.44V35.608C1.048 35.352 1.672 35.128 2.312 34.936C2.984 34.712 3.656 34.536 4.328 34.408V5.992C3.656 5.864 2.984 5.704 2.312 5.512C1.672 5.288 1.032 5.048 0.392 4.792V3.4H10.232L18.584 25.336L20.216 30.28H20.264L21.896 25.24L30.536 3.4H39.224V4.792C38.648 5.048 38.056 5.288 37.448 5.512C36.84 5.704 36.216 5.864 35.576 5.992V34.504C36.248 34.632 36.872 34.792 37.448 34.984C38.056 35.144 38.632 35.352 39.176 35.608V37ZM42.593 25C42.593 22.984 42.849 21.208 43.361 19.672C43.905 18.104 44.673 16.792 45.665 15.736C46.657 14.648 47.841 13.832 49.217 13.288C50.625 12.712 52.177 12.424 53.873 12.424C55.857 12.424 57.569 12.728 59.009 13.336C60.449 13.944 61.617 14.808 62.513 15.928C63.441 17.016 64.113 18.328 64.529 19.864C64.977 21.4 65.201 23.112 65.201 25C65.201 29.032 64.177 32.136 62.129 34.312C60.081 36.488 57.329 37.576 53.873 37.576C51.953 37.576 50.289 37.288 48.881 36.712C47.473 36.104 46.305 35.256 45.377 34.168C44.449 33.048 43.745 31.72 43.265 30.184C42.817 28.616 42.593 26.888 42.593 25ZM47.201 25C47.201 26.44 47.329 27.8 47.585 29.08C47.873 30.36 48.305 31.48 48.881 32.44C49.489 33.368 50.273 34.104 51.233 34.648C52.193 35.192 53.345 35.464 54.689 35.464C56.417 35.464 57.825 34.616 58.913 32.92C60.033 31.224 60.593 28.584 60.593 25C60.593 23.528 60.449 22.168 60.161 20.92C59.905 19.64 59.489 18.536 58.913 17.608C58.337 16.648 57.601 15.896 56.705 15.352C55.809 14.808 54.737 14.536 53.489 14.536C51.601 14.536 50.081 15.384 48.929 17.08C47.777 18.776 47.201 21.416 47.201 25ZM77.7365 37.576L68.3765 15.4C67.4485 15.08 66.6005 14.696 65.8325 14.248V13H75.8645V14.2C75.4485 14.424 75.0165 14.648 74.5685 14.872C74.1525 15.064 73.6725 15.24 73.1285 15.4L78.6965 29.848L79.6565 32.824H79.7525L80.4725 29.8L85.6085 15.4C85.0965 15.272 84.6165 15.112 84.1685 14.92C83.7525 14.728 83.3525 14.504 82.9685 14.248V13H91.1285V14.248C90.8085 14.472 90.4085 14.68 89.9285 14.872C89.4805 15.064 88.9685 15.24 88.3925 15.4L79.8965 37L77.7365 37.576ZM103.265 37H92.6086V35.8C93.0886 35.544 93.5846 35.336 94.0966 35.176C94.6086 34.984 95.1686 34.808 95.7766 34.648V15.784L92.6086 15.4V14.152C93.5366 13.768 94.5446 13.432 95.6326 13.144C96.7206 12.856 97.8086 12.616 98.8966 12.424H100.097V34.648C100.737 34.808 101.313 34.984 101.825 35.176C102.337 35.336 102.817 35.544 103.265 35.8V37ZM94.8646 4.84C94.8646 3.976 95.1366 3.288 95.6806 2.776C96.2566 2.264 97.0086 2.008 97.9366 2.008C98.8646 2.008 99.6006 2.264 100.145 2.776C100.689 3.288 100.961 3.976 100.961 4.84C100.961 5.704 100.689 6.392 100.145 6.904C99.6006 7.384 98.8646 7.624 97.9366 7.624C97.0086 7.624 96.2566 7.384 95.6806 6.904C95.1366 6.392 94.8646 5.704 94.8646 4.84ZM126.486 33.64C126.23 34.184 125.83 34.696 125.286 35.176C124.742 35.656 124.118 36.072 123.414 36.424C122.71 36.776 121.942 37.048 121.11 37.24C120.278 37.464 119.43 37.576 118.566 37.576C116.678 37.576 115.014 37.288 113.574 36.712C112.134 36.104 110.934 35.256 109.974 34.168C109.014 33.048 108.278 31.72 107.766 30.184C107.286 28.648 107.046 26.92 107.046 25C107.046 20.904 107.99 17.784 109.878 15.64C111.766 13.496 114.438 12.424 117.894 12.424C119.014 12.424 120.118 12.584 121.206 12.904C122.294 13.192 123.254 13.688 124.086 14.392C124.95 15.096 125.638 16.04 126.15 17.224C126.694 18.376 126.966 19.816 126.966 21.544C126.966 22.088 126.934 22.648 126.87 23.224C126.838 23.768 126.758 24.36 126.63 25H111.654C111.654 26.344 111.814 27.608 112.134 28.792C112.486 29.944 112.998 30.952 113.67 31.816C114.342 32.68 115.19 33.368 116.214 33.88C117.238 34.36 118.438 34.6 119.814 34.6C120.934 34.6 122.07 34.44 123.222 34.12C124.374 33.8 125.238 33.384 125.814 32.872L126.486 33.64ZM117.702 14.536C115.878 14.536 114.486 15.16 113.526 16.408C112.566 17.624 111.99 19.784 111.798 22.888H122.358C122.39 22.6 122.406 22.328 122.406 22.072C122.438 21.784 122.454 21.512 122.454 21.256C122.454 19.208 122.07 17.576 121.302 16.36C120.534 15.144 119.334 14.536 117.702 14.536ZM143.811 37H131.523V35.608C132.771 35.032 134.051 34.648 135.363 34.456V5.992C134.723 5.864 134.083 5.704 133.443 5.512C132.803 5.288 132.163 5.048 131.523 4.792V3.4H143.811V4.792C143.235 5.048 142.611 5.288 141.939 5.512C141.267 5.704 140.611 5.864 139.971 5.992V34.456C140.643 34.584 141.315 34.744 141.987 34.936C142.659 35.128 143.267 35.352 143.811 35.608V37ZM173.79 37H163.47V35.8C164.334 35.352 165.278 34.968 166.302 34.648V23.272C166.302 20.84 165.95 18.92 165.246 17.512C164.542 16.104 163.262 15.4 161.406 15.4C160.606 15.4 159.854 15.544 159.15 15.832C158.478 16.12 157.87 16.52 157.326 17.032C156.814 17.512 156.366 18.072 155.982 18.712C155.598 19.32 155.294 19.96 155.07 20.632V34.648C156.062 34.84 157.022 35.224 157.95 35.8V37H147.582V35.8C148.382 35.384 149.438 35 150.75 34.648V15.784L147.582 15.4V14.152C148.414 13.8 149.374 13.48 150.462 13.192C151.55 12.904 152.686 12.648 153.87 12.424H155.07V17.8H155.118C155.79 16.328 156.75 15.064 157.998 14.008C159.278 12.952 160.814 12.424 162.606 12.424C163.886 12.424 165.022 12.584 166.014 12.904C167.038 13.192 167.886 13.72 168.558 14.488C169.23 15.256 169.742 16.296 170.094 17.608C170.446 18.888 170.622 20.52 170.622 22.504V34.648C171.902 34.872 172.958 35.256 173.79 35.8V37ZM189.282 0.903998C189.57 0.903998 189.906 0.919998 190.29 0.951998C190.674 0.983997 191.074 1.032 191.49 1.096C191.906 1.128 192.306 1.192 192.69 1.288C193.074 1.352 193.41 1.432 193.698 1.528C193.602 2.584 193.458 3.576 193.266 4.504C193.106 5.4 192.898 6.216 192.642 6.952H191.442L189.33 2.824C188.402 2.824 187.602 2.92 186.93 3.112C186.29 3.304 185.746 3.672 185.298 4.216C184.882 4.76 184.562 5.544 184.338 6.568C184.146 7.592 184.05 8.936 184.05 10.6V13H189.57V15.4H184.05V34.648C185.714 34.84 187.25 35.224 188.658 35.8V37H176.562V35.8C177.554 35.224 178.61 34.84 179.73 34.648V15.4H176.082V14.152C177.202 13.448 178.418 12.92 179.73 12.568V10.888C179.73 8.904 179.97 7.272 180.45 5.992C180.93 4.68 181.602 3.656 182.466 2.92C183.33 2.152 184.338 1.624 185.49 1.336C186.674 1.048 187.938 0.903998 189.282 0.903998ZM192.124 25C192.124 22.984 192.38 21.208 192.892 19.672C193.436 18.104 194.204 16.792 195.196 15.736C196.188 14.648 197.372 13.832 198.748 13.288C200.156 12.712 201.708 12.424 203.404 12.424C205.388 12.424 207.1 12.728 208.54 13.336C209.98 13.944 211.148 14.808 212.044 15.928C212.972 17.016 213.644 18.328 214.06 19.864C214.508 21.4 214.732 23.112 214.732 25C214.732 29.032 213.708 32.136 211.66 34.312C209.612 36.488 206.86 37.576 203.404 37.576C201.484 37.576 199.82 37.288 198.412 36.712C197.004 36.104 195.836 35.256 194.908 34.168C193.98 33.048 193.276 31.72 192.796 30.184C192.348 28.616 192.124 26.888 192.124 25ZM196.732 25C196.732 26.44 196.86 27.8 197.116 29.08C197.404 30.36 197.836 31.48 198.412 32.44C199.02 33.368 199.804 34.104 200.764 34.648C201.724 35.192 202.876 35.464 204.22 35.464C205.948 35.464 207.356 34.616 208.444 32.92C209.564 31.224 210.124 28.584 210.124 25C210.124 23.528 209.98 22.168 209.692 20.92C209.436 19.64 209.02 18.536 208.444 17.608C207.868 16.648 207.132 15.896 206.236 15.352C205.34 14.808 204.268 14.536 203.02 14.536C201.132 14.536 199.612 15.384 198.46 17.08C197.308 18.776 196.732 21.416 196.732 25ZM238.125 37H227.469V35.608C228.621 35.096 229.773 34.712 230.925 34.456L243.069 2.824H244.461L256.605 34.456C257.245 34.584 257.869 34.728 258.477 34.888C259.117 35.048 259.709 35.288 260.253 35.608V37H247.965V35.608C248.605 35.352 249.261 35.128 249.933 34.936C250.605 34.744 251.261 34.584 251.901 34.456L248.637 25.672H237.165L233.997 34.456C235.341 34.648 236.717 35.032 238.125 35.608V37ZM238.125 23.176H247.821L244.029 13L243.117 8.872H243.021L241.821 13.096L238.125 23.176ZM272.378 46.6H261.722V45.4C262.81 44.888 263.866 44.504 264.89 44.248V15.784L261.722 15.4V14.152C262.746 13.704 263.786 13.352 264.842 13.096C265.93 12.808 266.986 12.584 268.01 12.424H269.21V17.8H269.258C269.898 16.168 270.794 14.872 271.946 13.912C273.098 12.92 274.602 12.424 276.458 12.424C279.306 12.424 281.514 13.368 283.082 15.256C284.65 17.144 285.434 20.216 285.434 24.472C285.434 26.488 285.162 28.312 284.618 29.944C284.106 31.576 283.354 32.952 282.362 34.072C281.402 35.192 280.218 36.056 278.81 36.664C277.434 37.272 275.898 37.576 274.202 37.576C273.018 37.576 272.09 37.496 271.418 37.336C270.746 37.208 270.01 36.968 269.21 36.616V44.248C269.722 44.312 270.234 44.424 270.746 44.584C271.258 44.776 271.802 45.048 272.378 45.4V46.6ZM274.922 15.4C273.354 15.4 272.106 15.896 271.178 16.888C270.25 17.88 269.594 19.24 269.21 20.968V34.408C269.786 34.76 270.426 35.032 271.13 35.224C271.866 35.384 272.81 35.464 273.962 35.464C275.018 35.464 275.962 35.192 276.794 34.648C277.658 34.104 278.378 33.336 278.954 32.344C279.562 31.352 280.026 30.2 280.346 28.888C280.666 27.544 280.826 26.072 280.826 24.472C280.826 23.16 280.714 21.96 280.49 20.872C280.298 19.752 279.962 18.792 279.482 17.992C279.034 17.16 278.426 16.52 277.658 16.072C276.922 15.624 276.01 15.4 274.922 15.4ZM299.566 46.6H288.91V45.4C289.998 44.888 291.054 44.504 292.078 44.248V15.784L288.91 15.4V14.152C289.934 13.704 290.974 13.352 292.03 13.096C293.118 12.808 294.174 12.584 295.198 12.424H296.398V17.8H296.446C297.086 16.168 297.982 14.872 299.134 13.912C300.286 12.92 301.79 12.424 303.646 12.424C306.494 12.424 308.702 13.368 310.27 15.256C311.838 17.144 312.622 20.216 312.622 24.472C312.622 26.488 312.35 28.312 311.806 29.944C311.294 31.576 310.542 32.952 309.55 34.072C308.59 35.192 307.406 36.056 305.998 36.664C304.622 37.272 303.086 37.576 301.39 37.576C300.206 37.576 299.278 37.496 298.606 37.336C297.934 37.208 297.198 36.968 296.398 36.616V44.248C296.91 44.312 297.422 44.424 297.934 44.584C298.446 44.776 298.99 45.048 299.566 45.4V46.6ZM302.11 15.4C300.542 15.4 299.294 15.896 298.366 16.888C297.438 17.88 296.782 19.24 296.398 20.968V34.408C296.974 34.76 297.614 35.032 298.318 35.224C299.054 35.384 299.998 35.464 301.15 35.464C302.206 35.464 303.15 35.192 303.982 34.648C304.846 34.104 305.566 33.336 306.142 32.344C306.75 31.352 307.214 30.2 307.534 28.888C307.854 27.544 308.014 26.072 308.014 24.472C308.014 23.16 307.902 21.96 307.678 20.872C307.486 19.752 307.15 18.792 306.67 17.992C306.222 17.16 305.614 16.52 304.846 16.072C304.11 15.624 303.198 15.4 302.11 15.4Z" fill="white"/>
</svg>